<svg width="36" height="36" viewBox="0 0 36 36" fill="none" xmlns="http://www.w3.org/2000/svg">
<g id="envelope-regular 1">
<path id="Vector" d="M4.5 7.82646C3.88125 7.82646 3.375 8.32961 3.375 8.94456V10.4889L15.5039 20.3841C16.9594 21.5721 19.0477 21.5721 20.5031 20.3841L32.625 10.4889V8.94456C32.625 8.32961 32.1188 7.82646 31.5 7.82646H4.5ZM3.375 14.8286V26.8341C3.375 27.4491 3.88125 27.9522 4.5 27.9522H31.5C32.1188 27.9522 32.625 27.4491 32.625 26.8341V14.8286L22.6406 22.9767C19.9406 25.1779 16.0523 25.1779 13.3594 22.9767L3.375 14.8286ZM0 8.94456C0 6.47776 2.01797 4.47217 4.5 4.47217H31.5C33.982 4.47217 36 6.47776 36 8.94456V26.8341C36 29.3009 33.982 31.3065 31.5 31.3065H4.5C2.01797 31.3065 0 29.3009 0 26.8341V8.94456Z" fill="white"/>
</g>
</svg>
